<svg width="279" height="226" viewBox="0 0 279 226" fill="none" xmlns="http://www.w3.org/2000/svg">
<g filter="url(#filter0_dd_77_2)">
<path fill-rule="evenodd" clip-rule="evenodd" d="M149.474 155.4C154.826 158.193 160.913 159.772 167.369 159.772C188.762 159.772 206.105 142.429 206.105 121.035C206.105 107.614 199.28 95.7863 188.91 88.8354C186.347 69.9259 170.139 55.3508 150.526 55.3508C147.134 55.3508 143.843 55.7869 140.708 56.6061C133.603 48.2796 123.032 43 111.228 43C98.7913 43 87.7235 48.8609 80.6358 57.9713C75.0659 54.8713 68.6515 53.1053 61.8247 53.1053C42.3155 53.1053 26.1747 67.5275 23.4825 86.2919C11.8412 92.9733 4 105.527 4 119.912C4 141.306 21.3431 158.649 42.7369 158.649C43.3779 158.649 44.0154 158.633 44.6488 158.603C51.7233 166.228 61.8308 171 73.0527 171C82.5988 171 91.3384 167.547 98.0905 161.822C104.362 166.192 111.987 168.754 120.211 168.754C131.895 168.754 142.371 163.581 149.474 155.4Z" fill="url(#paint0_linear_77_2)"/>
</g>
<g filter="url(#filter1_dd_77_2)">
<path fill-rule="evenodd" clip-rule="evenodd" d="M233.809 171.753C237.703 173.785 242.13 174.933 246.825 174.933C262.386 174.933 275 162.319 275 146.758C275 136.996 270.035 128.394 262.493 123.338C260.629 109.584 248.84 98.9834 234.575 98.9834C232.108 98.9834 229.714 99.3005 227.433 99.8964C222.266 93.8401 214.577 90 205.992 90C196.946 90 188.896 94.2628 183.741 100.889C179.689 98.6345 175.024 97.35 170.059 97.35C155.869 97.35 144.129 107.84 142.171 121.488C133.703 126.348 128 135.479 128 145.942C128 161.502 140.614 174.117 156.175 174.117C156.641 174.117 157.105 174.105 157.566 174.083C162.711 179.629 170.063 183.1 178.225 183.1C185.168 183.1 191.525 180.588 196.436 176.424C200.998 179.603 206.544 181.467 212.525 181.467C221.024 181.467 228.644 177.704 233.809 171.753Z" fill="url(#paint1_linear_77_2)"/>
</g>
<defs>
<filter id="filter0_dd_77_2" x="0" y="43" width="210.105" height="136" filterUnits="userSpaceOnUse" color-interpolation-filters="sRGB">
<feFlood flood-opacity="0" result="BackgroundImageFix"/>
<feColorMatrix in="SourceAlpha" type="matrix" values="0 0 0 0 0 0 0 0 0 0 0 0 0 0 0 0 0 0 127 0" result="hardAlpha"/>
<feOffset dy="4"/>
<feGaussianBlur stdDeviation="2"/>
<feComposite in2="hardAlpha" operator="out"/>
<feColorMatrix type="matrix" values="0 0 0 0 0 0 0 0 0 0 0 0 0 0 0 0 0 0 0.25 0"/>
<feBlend mode="normal" in2="BackgroundImageFix" result="effect1_dropShadow_77_2"/>
<feColorMatrix in="SourceAlpha" type="matrix" values="0 0 0 0 0 0 0 0 0 0 0 0 0 0 0 0 0 0 127 0" result="hardAlpha"/>
<feOffset dy="4"/>
<feGaussianBlur stdDeviation="2"/>
<feComposite in2="hardAlpha" operator="out"/>
<feColorMatrix type="matrix" values="0 0 0 0 0 0 0 0 0 0 0 0 0 0 0 0 0 0 0.25 0"/>
<feBlend mode="normal" in2="effect1_dropShadow_77_2" result="effect2_dropShadow_77_2"/>
<feBlend mode="normal" in="SourceGraphic" in2="effect2_dropShadow_77_2" result="shape"/>
</filter>
<filter id="filter1_dd_77_2" x="124" y="90" width="155" height="101.1" filterUnits="userSpaceOnUse" color-interpolation-filters="sRGB">
<feFlood flood-opacity="0" result="BackgroundImageFix"/>
<feColorMatrix in="SourceAlpha" type="matrix" values="0 0 0 0 0 0 0 0 0 0 0 0 0 0 0 0 0 0 127 0" result="hardAlpha"/>
<feOffset dy="4"/>
<feGaussianBlur stdDeviation="2"/>
<feComposite in2="hardAlpha" operator="out"/>
<feColorMatrix type="matrix" values="0 0 0 0 0 0 0 0 0 0 0 0 0 0 0 0 0 0 0.25 0"/>
<feBlend mode="normal" in2="BackgroundImageFix" result="effect1_dropShadow_77_2"/>
<feColorMatrix in="SourceAlpha" type="matrix" values="0 0 0 0 0 0 0 0 0 0 0 0 0 0 0 0 0 0 127 0" result="hardAlpha"/>
<feOffset dy="4"/>
<feGaussianBlur stdDeviation="2"/>
<feComposite in2="hardAlpha" operator="out"/>
<feColorMatrix type="matrix" values="0 0 0 0 0 0 0 0 0 0 0 0 0 0 0 0 0 0 0.25 0"/>
<feBlend mode="normal" in2="effect1_dropShadow_77_2" result="effect2_dropShadow_77_2"/>
<feBlend mode="normal" in="SourceGraphic" in2="effect2_dropShadow_77_2" result="shape"/>
</filter>
<linearGradient id="paint0_linear_77_2" x1="105.053" y1="43" x2="105.053" y2="171" gradientUnits="userSpaceOnUse">
<stop stop-color="#E0E3E4"/>
<stop offset="1" stop-color="#A1B1B8"/>
</linearGradient>
<linearGradient id="paint1_linear_77_2" x1="201.5" y1="90" x2="201.5" y2="183.1" gradientUnits="userSpaceOnUse">
<stop stop-color="#E0E3E4"/>
<stop offset="1" stop-color="#A1B1B8"/>
</linearGradient>
</defs>
</svg>
