<svg width="48" height="48" viewBox="0 0 48 48" fill="none" xmlns="http://www.w3.org/2000/svg">
<path fill-rule="evenodd" clip-rule="evenodd" d="M33.391 9.99078H16.8194V22.7911C16.8194 22.7924 16.8193 22.7937 16.8193 22.795C16.8193 23.3228 20.529 23.7506 25.1051 23.7506C29.6812 23.7506 33.3909 23.3228 33.3909 22.795C33.3909 22.795 33.3909 22.795 33.3909 22.795H33.391V9.99078Z" fill="white"/>
<path fill-rule="evenodd" clip-rule="evenodd" d="M33.391 9.99078H16.8194V22.7911C16.8194 22.7924 16.8193 22.7937 16.8193 22.795C16.8193 23.3228 20.529 23.7506 25.1051 23.7506C29.6812 23.7506 33.3909 23.3228 33.3909 22.795C33.3909 22.795 33.3909 22.795 33.3909 22.795H33.391V9.99078Z" fill="white"/>
<path d="M12.3613 8.09529C12.557 4.94599 15.4959 2.56573 18.9255 2.77882C22.3551 2.99191 24.9767 5.71767 24.781 8.86696C24.5853 12.0163 21.5399 13.7605 18.3207 12.5115C14.8911 12.2985 12.1657 11.2446 12.3613 8.09529Z" fill="white"/>
<path d="M18.8823 5.70234C19.0779 2.55305 22.0168 0.172786 25.4464 0.385878C28.876 0.59897 31.4976 3.32472 31.3019 6.47402C31.1063 9.62331 28.0608 11.3676 24.8417 10.1186C21.4121 9.90551 18.6866 8.85164 18.8823 5.70234Z" fill="white"/>
<path d="M37.9091 8.09529C37.7134 4.94599 34.7745 2.56573 31.3449 2.77882C27.9153 2.99191 25.2937 5.71767 25.4894 8.86696C25.6851 12.0163 28.7305 13.7605 31.9496 12.5115C35.3792 12.2985 38.1047 11.2446 37.9091 8.09529Z" fill="white"/>
<ellipse cx="20.708" cy="17.9176" rx="0.957202" ry="5.29452" fill="#F9F8F8"/>
<ellipse cx="20.5285" cy="17.9176" rx="0.777727" ry="5.29452" fill="white"/>
<ellipse cx="29.5621" cy="17.9176" rx="0.957202" ry="5.29452" fill="#F9F8F8"/>
<ellipse cx="29.7415" cy="17.9176" rx="0.777727" ry="5.29452" fill="white"/>
<ellipse cx="25.1351" cy="17.9176" rx="0.957202" ry="5.29452" fill="#F9F8F8"/>
<ellipse cx="25.1351" cy="17.9176" rx="0.598251" ry="5.29452" fill="white"/>
<path fill-rule="evenodd" clip-rule="evenodd" d="M23.7161 41.5106C23.7161 40.926 23.8181 40.3595 24.0093 39.8208C24.4966 37.5292 26.4532 35.8157 28.7928 35.8157C29.4402 35.8157 30.0583 35.9469 30.624 36.1853C31.5714 36.5131 32.6449 37.0565 33.7122 37.7828C34.568 38.3651 35.316 38.9944 35.9153 39.6132C35.9226 39.6131 35.93 39.613 35.9373 39.6129C36.1118 39.7528 36.3125 39.8806 36.5345 39.9887C37.2478 40.336 37.9857 40.3845 38.4486 40.1607C38.4497 40.1614 38.4507 40.1621 38.4518 40.1628C38.7323 40.0384 38.952 39.8611 39.0999 39.6286C39.4539 39.0719 39.3466 38.2762 38.8712 37.3663C40.1036 38.4904 40.8447 39.9349 40.8447 41.5106C40.8447 45.0946 37.0103 48 32.2804 48C27.5504 48 23.7161 45.0946 23.7161 41.5106Z" fill="black"/>
<path fill-rule="evenodd" clip-rule="evenodd" d="M23.7161 41.5106C23.7161 40.926 23.8181 40.3595 24.0093 39.8208C24.4966 37.5292 26.4532 35.8157 28.7928 35.8157C29.4402 35.8157 30.0583 35.9469 30.624 36.1853C31.5714 36.5131 32.6449 37.0565 33.7122 37.7828C34.568 38.3651 35.316 38.9944 35.9153 39.6132C35.9226 39.6131 35.93 39.613 35.9373 39.6129C36.1118 39.7528 36.3125 39.8806 36.5345 39.9887C37.2478 40.336 37.9857 40.3845 38.4486 40.1607C38.4497 40.1614 38.4507 40.1621 38.4518 40.1628C38.7323 40.0384 38.952 39.8611 39.0999 39.6286C39.4539 39.0719 39.3466 38.2762 38.8712 37.3663C40.1036 38.4904 40.8447 39.9349 40.8447 41.5106C40.8447 45.0946 37.0103 48 32.2804 48C27.5504 48 23.7161 45.0946 23.7161 41.5106Z" fill="black"/>
<path fill-rule="evenodd" clip-rule="evenodd" d="M25.1287 41.5106C25.1287 40.926 25.0267 40.3595 24.8354 39.8208C24.3481 37.5292 22.3915 35.8157 20.0519 35.8157C19.4044 35.8157 18.7863 35.9469 18.2205 36.1853C17.2732 36.5131 16.1998 37.0566 15.1326 37.7828C14.2767 38.3651 13.5288 38.9944 12.9295 39.6132C12.9221 39.6131 12.9148 39.613 12.9075 39.6129C12.7331 39.7528 12.5324 39.8806 12.3104 39.9887C11.5971 40.3359 10.8592 40.3845 10.3963 40.1606C10.3952 40.1613 10.3941 40.1621 10.3929 40.1628C10.1125 40.0384 9.89273 39.8611 9.74487 39.6286C9.3908 39.0719 9.49813 38.2762 9.97356 37.3663C8.74109 38.4904 8 39.9349 8 41.5106C8 45.0946 11.8344 48 16.5643 48C21.2943 48 25.1287 45.0946 25.1287 41.5106Z" fill="black"/>
<path fill-rule="evenodd" clip-rule="evenodd" d="M25.1287 41.5106C25.1287 40.926 25.0267 40.3595 24.8354 39.8208C24.3481 37.5292 22.3915 35.8157 20.0519 35.8157C19.4044 35.8157 18.7863 35.9469 18.2205 36.1853C17.2732 36.5131 16.1998 37.0566 15.1326 37.7828C14.2767 38.3651 13.5288 38.9944 12.9295 39.6132C12.9221 39.6131 12.9148 39.613 12.9075 39.6129C12.7331 39.7528 12.5324 39.8806 12.3104 39.9887C11.5971 40.3359 10.8592 40.3845 10.3963 40.1606C10.3952 40.1613 10.3941 40.1621 10.3929 40.1628C10.1125 40.0384 9.89273 39.8611 9.74487 39.6286C9.3908 39.0719 9.49813 38.2762 9.97356 37.3663C8.74109 38.4904 8 39.9349 8 41.5106C8 45.0946 11.8344 48 16.5643 48C21.2943 48 25.1287 45.0946 25.1287 41.5106Z" fill="black"/>
<ellipse cx="30.2281" cy="32.6703" rx="1.23609" ry="1.6334" fill="black"/>
<ellipse cx="18.6618" cy="32.6703" rx="1.23609" ry="1.6334" fill="black"/>
<path fill-rule="evenodd" clip-rule="evenodd" d="M30.4658 28.0173C30.0078 28.0415 29.5786 28.1551 29.199 28.3377L29.1889 28.344L29.179 28.3499L29.179 28.3499L29.179 28.3499C29.0638 28.4193 28.7655 28.5986 28.6514 28.5084C28.5338 28.4154 28.4826 28.2116 28.7033 27.9908C28.7149 27.9762 28.7268 27.963 28.7389 27.9512C29.2382 27.3506 29.9477 26.9755 30.7348 26.9755C31.8754 26.9755 32.8531 27.7632 33.2643 28.8831C33.2939 28.9442 33.3189 29.0183 33.3348 29.0918C33.4157 29.3695 33.416 29.4866 33.3341 29.5043C33.2813 29.5043 33.2732 29.4804 33.256 29.4293C33.2403 29.3828 33.2171 29.3139 33.1459 29.2201L33.1456 29.2202C33.1438 29.2176 33.142 29.2151 33.1401 29.2125C33.1303 29.1998 33.1196 29.1867 33.1079 29.1732C33.0961 29.1595 33.0859 29.1448 33.0771 29.1294C32.508 28.4087 31.5396 27.9603 30.4658 28.0173Z" fill="black"/>
<path fill-rule="evenodd" clip-rule="evenodd" d="M18.6781 28.0173C19.1359 28.0415 19.5649 28.1551 19.9445 28.3376L19.9548 28.344L19.9647 28.3499C20.08 28.4193 20.3782 28.5986 20.4924 28.5084C20.61 28.4154 20.6611 28.2116 20.4404 27.9908C20.4291 27.9765 20.4175 27.9636 20.4057 27.952C19.9064 27.351 19.1966 26.9755 18.4091 26.9755C17.2688 26.9755 16.2914 27.7627 15.88 28.882C15.8502 28.9433 15.825 29.0178 15.8089 29.0918C15.728 29.3695 15.7277 29.4866 15.8096 29.5043C15.8625 29.5043 15.8706 29.4804 15.8878 29.4293C15.9035 29.3828 15.9267 29.3139 15.9979 29.2201L15.9982 29.2202C16.0003 29.2173 16.0024 29.2143 16.0045 29.2114C16.0141 29.1991 16.0245 29.1863 16.0359 29.1732C16.0476 29.1595 16.0577 29.1449 16.0665 29.1296C16.6355 28.4088 17.604 27.9603 18.6781 28.0173Z" fill="black"/>
</svg>
