<svg width="226" height="226" viewBox="0 0 226 226" fill="none" xmlns="http://www.w3.org/2000/svg">
<g filter="url(#filter0_d_40_106)">
<ellipse cx="112.676" cy="112.989" rx="50.4559" ry="50.3088" fill="url(#paint0_radial_40_106)"/>
<path d="M104.807 191.646C103.998 192.671 102.38 192.439 101.894 191.228L92.5703 167.999C92.0391 166.676 93.2837 165.31 94.6598 165.693C97.9212 166.6 102.886 167.883 106.657 168.425C110.437 168.968 115.577 169.133 118.968 169.18C120.397 169.2 121.205 170.86 120.321 171.981L104.807 191.646Z" fill="url(#paint1_linear_40_106)"/>
<path d="M151.778 182.409C151.763 183.714 150.334 184.514 149.208 183.848L127.628 171.082C126.399 170.355 126.555 168.518 127.881 167.986C131.022 166.725 135.743 164.729 139.065 162.87C142.395 161.006 146.573 158.017 149.292 155.995C150.438 155.143 152.092 155.967 152.076 157.391L151.778 182.409Z" fill="url(#paint2_linear_40_106)"/>
<path d="M184.691 145.579C185.437 146.652 184.737 148.13 183.432 148.238L158.425 150.299C157.001 150.416 156.062 148.828 156.834 147.628C158.661 144.786 161.35 140.432 162.977 136.998C164.608 133.555 166.277 128.706 167.318 125.487C167.757 124.13 169.584 123.845 170.398 125.015L184.691 145.579Z" fill="url(#paint3_linear_40_106)"/>
<path d="M190.113 98.2458C191.34 98.6997 191.615 100.309 190.607 101.142L171.288 117.108C170.188 118.017 168.504 117.253 168.448 115.829C168.315 112.456 168.019 107.351 167.38 103.606C166.74 99.8519 165.324 94.9234 164.329 91.69C163.91 90.3276 165.246 89.0515 166.585 89.5468L190.113 98.2458Z" fill="url(#paint4_linear_40_106)"/>
<path d="M168.545 56.8143C169.822 56.5301 170.928 57.7301 170.536 58.9754L163.023 82.8468C162.595 84.2071 160.765 84.4802 159.942 83.316C157.991 80.5567 154.959 76.4315 152.382 73.6338C149.798 70.8293 145.922 67.4599 143.325 65.2848C142.231 64.3687 142.659 62.5732 144.054 62.2628L168.545 56.8143Z" fill="url(#paint5_linear_40_106)"/>
<path d="M56.8252 170.039C56.5857 171.322 57.8276 172.381 59.0617 171.947L82.7208 163.612C84.069 163.137 84.278 161.303 83.0819 160.524C80.2469 158.679 76.0045 155.804 73.1087 153.336C70.206 150.861 66.6911 147.118 64.4186 144.608C63.4616 143.55 61.6772 144.04 61.4156 145.442L56.8252 170.039Z" fill="url(#paint6_linear_40_106)"/>
<path d="M33.4768 121.646C32.4026 122.393 32.5422 124.02 33.728 124.574L56.449 135.191C57.7427 135.795 59.1795 134.634 58.8753 133.242C58.1547 129.943 57.1555 124.927 56.8301 121.143C56.5039 117.349 56.634 112.223 56.7822 108.845C56.8446 107.421 55.2309 106.52 54.0589 107.335L33.4768 121.646Z" fill="url(#paint7_linear_40_106)"/>
<path d="M43.4574 74.4359C42.1478 74.4152 41.3057 75.8178 41.9426 76.9591L54.1434 98.8214C54.8379 100.066 56.6838 99.9605 57.2541 98.6532C58.6047 95.5574 60.7364 90.9067 62.6926 87.6473C64.6535 84.3799 67.7654 80.2989 69.8676 77.6448C70.7537 76.526 69.9748 74.8541 68.5468 74.8316L43.4574 74.4359Z" fill="url(#paint8_linear_40_106)"/>
<path d="M82.4686 40.5329C81.4344 39.732 79.918 40.348 79.7396 41.6415L76.3199 66.4272C76.1252 67.8387 77.664 68.8619 78.9072 68.1588C81.8522 66.4931 86.3588 64.0521 89.8867 62.6182C93.4232 61.1809 98.3702 59.7826 101.65 58.9202C103.032 58.5568 103.415 56.7526 102.287 55.8788L82.4686 40.5329Z" fill="url(#paint9_linear_40_106)"/>
<path d="M129.941 36.1764C129.549 34.9311 127.954 34.5762 127.068 35.5373L110.091 53.9603C109.123 55.0101 109.801 56.7272 111.224 56.8558C114.596 57.1607 119.695 57.7159 123.413 58.5425C127.141 59.3712 132.006 61.0336 135.193 62.1887C136.536 62.6752 137.882 61.4083 137.454 60.0481L129.941 36.1764Z" fill="url(#paint10_linear_40_106)"/>
</g>
<defs>
<filter id="filter0_d_40_106" x="28.7485" y="34.9881" width="166.474" height="165.305" filterUnits="userSpaceOnUse" color-interpolation-filters="sRGB">
<feFlood flood-opacity="0" result="BackgroundImageFix"/>
<feColorMatrix in="SourceAlpha" type="matrix" values="0 0 0 0 0 0 0 0 0 0 0 0 0 0 0 0 0 0 127 0" result="hardAlpha"/>
<feOffset dy="4"/>
<feGaussianBlur stdDeviation="2"/>
<feComposite in2="hardAlpha" operator="out"/>
<feColorMatrix type="matrix" values="0 0 0 0 0 0 0 0 0 0 0 0 0 0 0 0 0 0 0.25 0"/>
<feBlend mode="normal" in2="BackgroundImageFix" result="effect1_dropShadow_40_106"/>
<feBlend mode="normal" in="SourceGraphic" in2="effect1_dropShadow_40_106" result="shape"/>
</filter>
<radialGradient id="paint0_radial_40_106" cx="0" cy="0" r="1" gradientUnits="userSpaceOnUse" gradientTransform="translate(112.676 112.989) rotate(90) scale(50.3088 50.4559)">
<stop stop-color="#FFB84E"/>
<stop offset="1" stop-color="#FA7C33"/>
</radialGradient>
<linearGradient id="paint1_linear_40_106" x1="106.884" y1="166.95" x2="103.01" y2="193.956" gradientUnits="userSpaceOnUse">
<stop stop-color="#FB7629"/>
<stop offset="1" stop-color="#FFC369"/>
</linearGradient>
<linearGradient id="paint2_linear_40_106" x1="138.345" y1="161.561" x2="151.684" y2="185.381" gradientUnits="userSpaceOnUse">
<stop stop-color="#FB7629"/>
<stop offset="1" stop-color="#FFC369"/>
</linearGradient>
<linearGradient id="paint3_linear_40_106" x1="161.63" y1="136.347" x2="186.345" y2="148.052" gradientUnits="userSpaceOnUse">
<stop stop-color="#FB7629"/>
<stop offset="1" stop-color="#FFC369"/>
</linearGradient>
<linearGradient id="paint4_linear_40_106" x1="165.902" y1="103.842" x2="192.871" y2="99.2412" gradientUnits="userSpaceOnUse">
<stop stop-color="#FB7629"/>
<stop offset="1" stop-color="#FFC369"/>
</linearGradient>
<linearGradient id="paint5_linear_40_106" x1="151.27" y1="74.6334" x2="171.363" y2="56.1166" gradientUnits="userSpaceOnUse">
<stop stop-color="#FB7629"/>
<stop offset="1" stop-color="#FFC369"/>
</linearGradient>
<linearGradient id="paint6_linear_40_106" x1="74.0711" y1="152.192" x2="56.3466" y2="172.975" gradientUnits="userSpaceOnUse">
<stop stop-color="#FB7629"/>
<stop offset="1" stop-color="#FFC369"/>
</linearGradient>
<linearGradient id="paint7_linear_40_106" x1="58.3207" y1="121.001" x2="31.0604" y2="123.34" gradientUnits="userSpaceOnUse">
<stop stop-color="#FB7629"/>
<stop offset="1" stop-color="#FFC369"/>
</linearGradient>
<linearGradient id="paint8_linear_40_106" x1="63.9845" y1="88.4019" x2="40.5447" y2="74.329" gradientUnits="userSpaceOnUse">
<stop stop-color="#FB7629"/>
<stop offset="1" stop-color="#FFC369"/>
</linearGradient>
<linearGradient id="paint9_linear_40_106" x1="90.4648" y1="63.9954" x2="80.1928" y2="38.7096" gradientUnits="userSpaceOnUse">
<stop stop-color="#FB7629"/>
<stop offset="1" stop-color="#FFC369"/>
</linearGradient>
<linearGradient id="paint10_linear_40_106" x1="123.101" y1="60.0027" x2="129.026" y2="33.3688" gradientUnits="userSpaceOnUse">
<stop stop-color="#FB7629"/>
<stop offset="1" stop-color="#FFC369"/>
</linearGradient>
</defs>
</svg>
